<?xml version="1.0" encoding="UTF-8" standalone="no"?>
<!-- Created with Inkscape (http://www.inkscape.org/) -->

<svg
   version="1.1"
   id="svg1"
   width="124"
   height="100"
   viewBox="0 0 124 100"
   xmlns="http://www.w3.org/2000/svg"
   xmlns:svg="http://www.w3.org/2000/svg">
  <defs
     id="defs1">
    <clipPath
       clipPathUnits="userSpaceOnUse"
       id="clipPath2">
      <path
         d="M 250,611.949 H 584.219 V 740 H 250 Z"
         id="path2" />
    </clipPath>
    <clipPath
       clipPathUnits="userSpaceOnUse"
       id="clipPath4">
      <path
         d="M 10,10 H 920 V 740 H 10 Z"
         id="path4" />
    </clipPath>
    <clipPath
       clipPathUnits="userSpaceOnUse"
       id="clipPath6">
      <path
         d="M 10,10 H 920 V 740 H 10 Z"
         id="path6" />
    </clipPath>
    <clipPath
       clipPathUnits="userSpaceOnUse"
       id="clipPath8">
      <path
         d="M 10,10 H 920 V 740 H 10 Z"
         id="path8" />
    </clipPath>
    <clipPath
       clipPathUnits="userSpaceOnUse"
       id="clipPath10">
      <path
         d="M 10,10 H 920 V 740 H 10 Z"
         id="path10" />
    </clipPath>
    <clipPath
       clipPathUnits="userSpaceOnUse"
       id="clipPath12">
      <path
         d="M 630,260 H 764.488 V 594.141 H 630 Z"
         id="path12" />
    </clipPath>
    <clipPath
       clipPathUnits="userSpaceOnUse"
       id="clipPath14">
      <path
         d="M 10,10 H 920 V 740 H 10 Z"
         id="path14" />
    </clipPath>
    <clipPath
       clipPathUnits="userSpaceOnUse"
       id="clipPath16">
      <path
         d="M 10,10 H 920 V 740 H 10 Z"
         id="path16" />
    </clipPath>
    <clipPath
       clipPathUnits="userSpaceOnUse"
       id="clipPath18">
      <path
         d="M 10,10 H 920 V 740 H 10 Z"
         id="path18" />
    </clipPath>
    <clipPath
       clipPathUnits="userSpaceOnUse"
       id="clipPath20">
      <path
         d="M 10,10 H 920 V 740 H 10 Z"
         id="path20" />
    </clipPath>
    <clipPath
       clipPathUnits="userSpaceOnUse"
       id="clipPath22">
      <path
         d="M 10,10 H 920 V 740 H 10 Z"
         id="path22" />
    </clipPath>
    <clipPath
       clipPathUnits="userSpaceOnUse"
       id="clipPath24">
      <path
         d="M 10,10 H 920 V 740 H 10 Z"
         id="path24" />
    </clipPath>
    <clipPath
       clipPathUnits="userSpaceOnUse"
       id="clipPath26">
      <path
         d="M 10,10 H 920 V 740 H 10 Z"
         id="path26" />
    </clipPath>
    <clipPath
       clipPathUnits="userSpaceOnUse"
       id="clipPath28">
      <path
         d="m 70.5508,10 h 129.449 V 70 H 70.5508 Z"
         id="path28" />
    </clipPath>
    <clipPath
       clipPathUnits="userSpaceOnUse"
       id="clipPath30">
      <path
         d="M 10,300 H 257.109 V 550.469 H 10 Z"
         id="path30" />
    </clipPath>
    <clipPath
       clipPathUnits="userSpaceOnUse"
       id="clipPath32">
      <path
         d="M 10,300 H 257.109 V 550.469 H 10 Z"
         id="path32" />
    </clipPath>
    <clipPath
       clipPathUnits="userSpaceOnUse"
       id="clipPath34">
      <path
         d="M 10,300 H 257.109 V 550.469 H 10 Z"
         id="path34" />
    </clipPath>
    <clipPath
       clipPathUnits="userSpaceOnUse"
       id="clipPath36">
      <path
         d="M 10,10 H 920 V 740 H 10 Z"
         id="path36" />
    </clipPath>
    <clipPath
       clipPathUnits="userSpaceOnUse"
       id="clipPath38">
      <path
         d="M 10,10 H 920 V 740 H 10 Z"
         id="path38" />
    </clipPath>
  </defs>
  <g
     id="g1">
    <path
       id="path1"
       d="M 580.23,675.469 549.801,615.941 496.879,735 443.949,615.941 391.02,735 338.09,615.941 285.16,735 254.73,675.469"
       style="fill:none;stroke:#000000;stroke-width:7.97003;stroke-linecap:butt;stroke-linejoin:bevel;stroke-miterlimit:10;stroke-dasharray:none;stroke-opacity:1"
       transform="matrix(0.13333333,0,0,-0.13333333,0,100)"
       clip-path="url(#clipPath2)" />
    <path
       id="path3"
       d="M 700.98,675.469 H 576.25"
       style="fill:none;stroke:#000000;stroke-width:3.75;stroke-linecap:butt;stroke-linejoin:miter;stroke-miterlimit:4;stroke-dasharray:none;stroke-opacity:1"
       transform="matrix(0.13333333,0,0,-0.13333333,0,100)"
       clip-path="url(#clipPath4)" />
    <path
       id="path5"
       d="m 134.059,675.469 h 124.73"
       style="fill:none;stroke:#000000;stroke-width:3.75;stroke-linecap:butt;stroke-linejoin:miter;stroke-miterlimit:4;stroke-dasharray:none;stroke-opacity:1"
       transform="matrix(0.13333333,0,0,-0.13333333,0,100)"
       clip-path="url(#clipPath6)" />
    <path
       id="path7"
       d="m 453.398,500.27 c 2.622,0 5.043,1.179 7.262,3.48 2.192,2.34 3.32,5.078 3.36,8.16 0,2.82 -1.168,4.77 -3.508,5.86 -4.774,1.21 -7.813,2.031 -9.141,2.5 -1.371,0.429 -2.312,0.859 -2.82,1.332 -2.692,1.878 -4.063,4.609 -4.063,8.128 0,2.731 0.742,5.231 2.153,7.5 1.449,2.219 2.89,3.899 4.379,5.04 1.32,1.128 2.89,2.031 4.718,2.691 1.84,0.66 3.282,1.019 4.301,1.059 h 1.211 c 4.301,0 7.422,-1.411 9.371,-4.301 0.039,0 0.32,0.312 0.859,0.859 0.551,0.582 1.141,1.25 1.758,1.953 0.633,0.739 1.063,1.207 1.332,1.489 0.039,0 0.16,0 0.27,0 0.16,0 0.238,0.031 0.359,0.07 0.582,0 0.852,-0.149 0.852,-0.469 0,-0.312 -0.621,-3.043 -1.871,-8.121 -1.25,-5.121 -1.989,-7.77 -2.149,-7.969 -0.191,-0.152 -0.551,-0.23 -1.09,-0.191 -0.902,0 -1.332,0.191 -1.332,0.621 0,0.238 0,0.469 0.039,0.66 0,0.117 0.043,0.551 0.082,1.289 0.04,0.711 0.071,1.289 0.149,1.719 0,1.531 -0.231,2.851 -0.617,3.992 -0.391,1.129 -0.821,1.949 -1.211,2.5 -0.391,0.539 -0.981,1.09 -1.68,1.68 -1.601,0.929 -3.441,1.398 -5.512,1.398 -2.578,0 -4.961,-1.008 -7.148,-3.078 -2.191,-2.07 -3.32,-4.461 -3.359,-7.152 0,-1.328 0.347,-2.5 1.019,-3.481 0.66,-1.008 1.598,-1.718 2.77,-2.109 0.16,-0.078 1.718,-0.5 4.687,-1.289 2.973,-0.738 4.453,-1.129 4.531,-1.211 1.52,-0.469 2.969,-1.559 4.411,-3.199 1.449,-1.68 2.152,-3.91 2.152,-6.758 0,-1.133 -0.152,-2.422 -0.512,-3.75 -0.23,-0.973 -0.621,-2.07 -1.211,-3.281 -0.578,-1.211 -1.398,-2.539 -2.418,-3.981 -1.051,-1.449 -2.543,-2.781 -4.453,-4.07 -1.949,-1.25 -4.058,-2.07 -6.328,-2.539 -0.551,-0.071 -1.289,-0.11 -2.301,-0.11 -4.418,0 -7.898,1.207 -10.359,3.668 l -0.66,0.743 -1.879,-2.071 c -1.051,-1.211 -1.68,-1.91 -1.91,-2.109 -0.192,-0.152 -0.512,-0.231 -0.86,-0.231 -0.582,0 -0.859,0.149 -0.859,0.508 0,0.153 1.289,5.422 3.867,15.821 0.121,0.269 0.551,0.429 1.371,0.429 h 0.86 c 0.269,-0.277 0.429,-0.551 0.429,-0.75 0,-0.109 -0.039,-0.308 -0.078,-0.621 -0.043,-0.308 -0.16,-0.777 -0.281,-1.406 -0.11,-0.621 -0.192,-1.371 -0.11,-2.223 0.071,-1.758 0.469,-3.25 1.211,-4.461 0.7,-1.207 1.68,-2.109 2.887,-2.687 1.211,-0.551 2.383,-0.981 3.473,-1.211 1.14,-0.199 2.308,-0.32 3.597,-0.32 z"
       style="fill:#000000;fill-opacity:1;fill-rule:nonzero;stroke:none"
       transform="matrix(0.13333333,0,0,-0.13333333,0,100)"
       clip-path="url(#clipPath8)" />
    <path
       id="path9"
       d="m 370.039,513.711 c 0,0.937 0.16,1.801 0.551,2.539 0,0.078 8.39,9.57 25.23,28.48 16.801,18.899 25.27,28.469 25.43,28.629 l -0.98,0.192 c -0.7,0 -3.04,0 -7.032,0 h -3.437 c -2.141,0 -3.942,-0.031 -5.313,-0.192 -1.398,-0.121 -3.16,-0.468 -5.226,-1.019 -2.114,-0.578 -3.832,-1.399 -5.16,-2.5 -1.332,-1.051 -2.774,-2.649 -4.301,-4.762 -1.52,-2.066 -2.692,-4.566 -3.59,-7.5 -0.082,-0.199 -0.121,-0.387 -0.191,-0.59 -0.079,-0.187 -0.122,-0.347 -0.2,-0.468 -0.082,-0.11 -0.082,-0.27 -0.082,-0.469 0,-0.192 -0.039,-0.27 -0.117,-0.27 l -0.07,-0.191 c -0.199,-0.32 -0.821,-0.469 -1.84,-0.469 -1.051,0 -1.68,0.309 -1.871,0.93 l 3.039,10.277 c 0.859,2.852 1.723,5.703 2.543,8.551 0.508,1.801 0.898,2.742 1.168,2.851 0.199,0.161 7.621,0.2 22.269,0.2 h 21.993 c 0.308,-0.309 0.468,-0.551 0.468,-0.739 0,-0.121 -0.199,-0.98 -0.59,-2.461 -33.468,-37.781 -50.269,-56.718 -50.351,-56.839 l -0.27,-0.313 h 8.481 c 6.012,0.082 9.289,0.152 9.801,0.192 4.769,0.589 8.668,2.152 11.718,4.691 3.051,2.539 5.551,7.187 7.5,13.988 0.512,1.602 0.86,2.531 1.051,2.852 0.199,0.308 0.59,0.469 1.25,0.469 h 0.36 c 1.32,0 2.031,-0.36 2.031,-1.059 -5.16,-16.871 -7.93,-25.391 -8.281,-25.59 -0.2,-0.109 -7.86,-0.191 -22.969,-0.191 h -16.762 c -4.18,0 -6.25,0.269 -6.25,0.781 z"
       style="fill:#000000;fill-opacity:1;fill-rule:nonzero;stroke:none"
       transform="matrix(0.13333333,0,0,-0.13333333,0,100)"
       clip-path="url(#clipPath10)" />
    <path
       id="path11"
       d="m 700.98,590.16 59.532,-30.43 -119.063,-52.929 119.063,-52.93 -119.063,-52.93 119.063,-52.929 -119.063,-52.934 59.531,-30.43"
       style="fill:none;stroke:#000000;stroke-width:7.97003;stroke-linecap:butt;stroke-linejoin:bevel;stroke-miterlimit:10;stroke-dasharray:none;stroke-opacity:1"
       transform="matrix(0.13333333,0,0,-0.13333333,0,100)"
       clip-path="url(#clipPath12)" />
    <path
       id="path13"
       d="M 700.98,675.469 V 586.172"
       style="fill:none;stroke:#000000;stroke-width:3.75;stroke-linecap:butt;stroke-linejoin:miter;stroke-miterlimit:4;stroke-dasharray:none;stroke-opacity:1"
       transform="matrix(0.13333333,0,0,-0.13333333,0,100)"
       clip-path="url(#clipPath14)" />
    <path
       id="path15"
       d="m 700.98,179.41 v 89.301"
       style="fill:none;stroke:#000000;stroke-width:3.75;stroke-linecap:butt;stroke-linejoin:miter;stroke-miterlimit:4;stroke-dasharray:none;stroke-opacity:1"
       transform="matrix(0.13333333,0,0,-0.13333333,0,100)"
       clip-path="url(#clipPath16)" />
    <path
       id="path17"
       d="m 881.988,430.699 c -1.519,0 -2.34,0.082 -2.418,0.281 -0.039,0.071 -0.082,0.27 -0.082,0.54 0,1.058 0.282,1.8 0.742,2.23 0.122,0.039 0.43,0.039 1.02,0.039 2.422,-0.117 5.27,-0.199 8.551,-0.199 6.328,0 9.969,0.082 10.898,0.199 h 0.821 c 0.281,-0.238 0.39,-0.469 0.39,-0.59 0,-0.148 -0.031,-0.539 -0.109,-1.211 -0.242,-0.66 -0.43,-1.09 -0.629,-1.289 h -2.543 c -3.117,-0.039 -4.918,-0.23 -5.469,-0.578 -0.308,-0.199 -0.621,-0.82 -0.93,-1.922 -0.32,-1.051 -1.839,-6.988 -4.5,-17.769 -0.742,-2.891 -1.48,-5.981 -2.3,-9.258 -0.821,-3.281 -1.41,-5.742 -1.84,-7.422 l -0.578,-2.422 c 0,-0.156 0.187,-0.277 0.578,-0.277 0.43,0 1.762,-0.031 3.988,-0.11 h 1.133 c 1.449,0 2.578,0 3.437,0.079 0.864,0.031 1.954,0.191 3.321,0.46 1.332,0.239 2.461,0.668 3.359,1.219 0.902,0.5 1.871,1.281 2.973,2.262 1.051,0.98 1.988,2.23 2.808,3.711 0.7,1.328 1.371,2.848 2.032,4.488 0.629,1.68 0.98,2.621 1.129,2.86 0.242,0.109 0.589,0.191 1.14,0.191 h 0.86 c 0.269,-0.391 0.429,-0.66 0.429,-0.742 0,-0.078 -0.469,-1.41 -1.371,-3.989 -0.898,-2.531 -1.879,-5.23 -2.93,-8.039 -1.097,-2.851 -1.679,-4.492 -1.757,-5 -0.082,-0.242 -0.192,-0.351 -0.27,-0.39 -0.082,-0.039 -0.473,-0.121 -1.101,-0.199 -0.622,-0.122 -1.559,-0.122 -2.891,-0.082 -0.469,0 -2.18,0 -5.109,0 -2.891,0 -5.668,0 -8.321,0.082 h -12 c -3.75,0 -5.66,0.199 -5.66,0.668 0,0.308 0.082,0.621 0.16,0.929 0.231,0.86 0.43,1.332 0.66,1.41 0.192,0.039 0.512,0.082 1.012,0.082 h 0.399 c 1.21,0 2.57,0.079 4.058,0.188 0.621,0.121 1.051,0.391 1.25,0.82 0.152,0.16 1.762,6.41 4.844,18.711 3.129,12.27 4.648,18.75 4.648,19.461 0,0.309 -1.25,0.5 -3.832,0.578 z"
       style="fill:#000000;fill-opacity:1;fill-rule:nonzero;stroke:none"
       transform="matrix(0.13333333,0,0,-0.13333333,0,100)"
       clip-path="url(#clipPath18)" />
    <path
       id="path19"
       d="m 804.02,402.891 c 0,0.937 0.199,1.8 0.589,2.539 0,0.082 8.403,9.57 25.192,28.48 16.84,18.899 25.32,28.469 25.429,28.668 l -0.929,0.192 c -0.711,0 -3.051,0 -7.071,0 h -3.402 c -2.187,0 -3.949,-0.071 -5.348,-0.192 -1.41,-0.156 -3.128,-0.469 -5.242,-1.058 -2.066,-0.579 -3.789,-1.399 -5.117,-2.461 -1.32,-1.09 -2.769,-2.688 -4.293,-4.758 -1.527,-2.11 -2.738,-4.61 -3.629,-7.539 -0.039,-0.203 -0.121,-0.391 -0.16,-0.551 -0.078,-0.191 -0.16,-0.352 -0.199,-0.512 -0.07,-0.109 -0.11,-0.269 -0.11,-0.469 0,-0.191 -0.039,-0.269 -0.082,-0.269 l -0.117,-0.191 c -0.191,-0.321 -0.781,-0.469 -1.801,-0.469 -1.089,0 -1.71,0.308 -1.91,0.929 l 3.051,10.282 c 0.899,2.886 1.75,5.738 2.578,8.59 0.5,1.757 0.891,2.738 1.129,2.847 0.192,0.121 7.621,0.199 22.262,0.199 h 22 c 0.308,-0.308 0.461,-0.589 0.461,-0.777 0,-0.121 -0.153,-0.941 -0.539,-2.461 -33.524,-37.781 -50.282,-56.719 -50.352,-56.84 l -0.281,-0.269 h 8.441 c 6.051,0.039 9.301,0.109 9.809,0.148 4.762,0.59 8.672,2.153 11.711,4.692 3.051,2.539 5.551,7.187 7.539,13.98 0.512,1.609 0.859,2.539 1.019,2.859 0.192,0.309 0.622,0.469 1.25,0.469 h 0.391 c 1.332,0 1.992,-0.359 1.992,-1.019 -5.16,-16.91 -7.89,-25.43 -8.281,-25.629 -0.199,-0.11 -7.852,-0.192 -22.93,-0.192 h -16.761 c -4.18,0 -6.289,0.27 -6.289,0.782 z"
       style="fill:#000000;fill-opacity:1;fill-rule:nonzero;stroke:none"
       transform="matrix(0.13333333,0,0,-0.13333333,0,100)"
       clip-path="url(#clipPath20)" />
    <path
       id="path21"
       d="M 700.98,179.41 V 60.3516"
       style="fill:none;stroke:#000000;stroke-width:3.98505;stroke-linecap:butt;stroke-linejoin:miter;stroke-miterlimit:10;stroke-dasharray:none;stroke-opacity:1"
       transform="matrix(0.13333333,0,0,-0.13333333,0,100)"
       clip-path="url(#clipPath22)" />
    <path
       id="path23"
       d="M 641.449,60.3516 H 760.512 M 661.289,40.5117 H 740.66 M 676.172,20.6602 h 49.609"
       style="fill:none;stroke:#000000;stroke-width:7.97003;stroke-linecap:butt;stroke-linejoin:miter;stroke-miterlimit:10;stroke-dasharray:none;stroke-opacity:1"
       transform="matrix(0.13333333,0,0,-0.13333333,0,100)"
       clip-path="url(#clipPath24)" />
    <path
       id="path25"
       d="M 134.059,179.41 V 60.3516"
       style="fill:none;stroke:#000000;stroke-width:3.98505;stroke-linecap:butt;stroke-linejoin:miter;stroke-miterlimit:10;stroke-dasharray:none;stroke-opacity:1"
       transform="matrix(0.13333333,0,0,-0.13333333,0,100)"
       clip-path="url(#clipPath26)" />
    <path
       id="path27"
       d="M 74.5313,60.3516 H 193.59 M 94.3789,40.5117 H 173.75 M 109.262,20.6602 h 49.609"
       style="fill:none;stroke:#000000;stroke-width:7.97003;stroke-linecap:butt;stroke-linejoin:miter;stroke-miterlimit:10;stroke-dasharray:none;stroke-opacity:1"
       transform="matrix(0.13333333,0,0,-0.13333333,0,100)"
       clip-path="url(#clipPath28)" />
    <path
       id="path29"
       d="m 253.121,427.422 c 0,65.738 -53.32,119.058 -119.062,119.058 C 68.3203,546.48 15,493.16 15,427.422 15,361.68 68.3203,308.359 134.059,308.359 c 65.742,0 119.062,53.321 119.062,119.063 z"
       style="fill:none;stroke:#000000;stroke-width:7.97003;stroke-linecap:butt;stroke-linejoin:miter;stroke-miterlimit:10;stroke-dasharray:none;stroke-opacity:1"
       transform="matrix(0.13333333,0,0,-0.13333333,0,100)"
       clip-path="url(#clipPath30)" />
    <path
       id="path31"
       d="m 160.98,375.309 c 1.68,0 3.469,0 3.469,1.992 0,2 -1.789,2 -3.469,2 h -53.91 c -1.679,0 -3.48,0 -3.48,-2 0,-1.992 1.801,-1.992 3.48,-1.992 z"
       style="fill:#000000;fill-opacity:1;fill-rule:nonzero;stroke:none"
       transform="matrix(0.13333333,0,0,-0.13333333,0,100)"
       clip-path="url(#clipPath32)" />
    <path
       id="path33"
       d="m 136.051,475.551 h 27.82 c 1.399,0 3.277,0 3.277,1.988 0,1.992 -1.878,1.992 -3.277,1.992 h -27.82 v 27.891 c 0,1.406 0,3.277 -1.992,3.277 -1.989,0 -1.989,-1.871 -1.989,-3.277 v -27.891 h -27.89 c -1.41,0 -3.282,0 -3.282,-1.992 0,-1.988 1.872,-1.988 3.282,-1.988 h 27.89 V 447.66 c 0,-1.41 0,-3.281 1.989,-3.281 1.992,0 1.992,1.871 1.992,3.281 z"
       style="fill:#000000;fill-opacity:1;fill-rule:nonzero;stroke:none"
       transform="matrix(0.13333333,0,0,-0.13333333,0,100)"
       clip-path="url(#clipPath34)" />
    <path
       id="path35"
       d="M 134.059,675.469 V 546.48"
       style="fill:none;stroke:#000000;stroke-width:3.75;stroke-linecap:butt;stroke-linejoin:miter;stroke-miterlimit:4;stroke-dasharray:none;stroke-opacity:1"
       transform="matrix(0.13333333,0,0,-0.13333333,0,100)"
       clip-path="url(#clipPath36)" />
    <path
       id="path37"
       d="M 134.059,179.41 V 308.398"
       style="fill:none;stroke:#000000;stroke-width:3.75;stroke-linecap:butt;stroke-linejoin:miter;stroke-miterlimit:4;stroke-dasharray:none;stroke-opacity:1"
       transform="matrix(0.13333333,0,0,-0.13333333,0,100)"
       clip-path="url(#clipPath38)" />
  </g>
</svg>
