<?xml version="1.0" encoding="UTF-8" standalone="no"?>
<!-- Created with Inkscape (http://www.inkscape.org/) -->

<svg
   version="1.1"
   id="svg1"
   width="254.66667"
   height="104"
   viewBox="0 0 254.66667 104"
   sodipodi:docname="tl.svg.ps"
   xmlns:inkscape="http://www.inkscape.org/namespaces/inkscape"
   xmlns:sodipodi="http://sodipodi.sourceforge.net/DTD/sodipodi-0.dtd"
   xmlns="http://www.w3.org/2000/svg"
   xmlns:svg="http://www.w3.org/2000/svg">
  <defs
     id="defs1">
    <clipPath
       clipPathUnits="userSpaceOnUse"
       id="clipPath2">
      <path
         d="M 10,0 H 1900 V 770 H 10 Z"
         id="path2" />
    </clipPath>
    <clipPath
       clipPathUnits="userSpaceOnUse"
       id="clipPath4">
      <path
         d="M 10,0 H 1900 V 770 H 10 Z"
         id="path4" />
    </clipPath>
    <clipPath
       clipPathUnits="userSpaceOnUse"
       id="clipPath6">
      <path
         d="M 10,0 H 1900 V 770 H 10 Z"
         id="path6" />
    </clipPath>
    <clipPath
       clipPathUnits="userSpaceOnUse"
       id="clipPath8">
      <path
         d="M 10,0 H 1900 V 770 H 10 Z"
         id="path8" />
    </clipPath>
    <clipPath
       clipPathUnits="userSpaceOnUse"
       id="clipPath10">
      <path
         d="M 10,0 H 1900 V 770 H 10 Z"
         id="path10" />
    </clipPath>
    <clipPath
       clipPathUnits="userSpaceOnUse"
       id="clipPath12">
      <path
         d="M 10,0 H 1900 V 770 H 10 Z"
         id="path12" />
    </clipPath>
    <clipPath
       clipPathUnits="userSpaceOnUse"
       id="clipPath14">
      <path
         d="M 10,0 H 1900 V 770 H 10 Z"
         id="path14" />
    </clipPath>
    <clipPath
       clipPathUnits="userSpaceOnUse"
       id="clipPath16">
      <path
         d="M 10,0 H 1900 V 770 H 10 Z"
         id="path16" />
    </clipPath>
    <clipPath
       clipPathUnits="userSpaceOnUse"
       id="clipPath18">
      <path
         d="M 10,0 H 1900 V 770 H 10 Z"
         id="path18" />
    </clipPath>
    <clipPath
       clipPathUnits="userSpaceOnUse"
       id="clipPath20">
      <path
         d="M 10,0 H 1900 V 770 H 10 Z"
         id="path20" />
    </clipPath>
    <clipPath
       clipPathUnits="userSpaceOnUse"
       id="clipPath22">
      <path
         d="M 10,0 H 1900 V 770 H 10 Z"
         id="path22" />
    </clipPath>
    <clipPath
       clipPathUnits="userSpaceOnUse"
       id="clipPath24">
      <path
         d="M 10,0 H 1900 V 770 H 10 Z"
         id="path24" />
    </clipPath>
    <clipPath
       clipPathUnits="userSpaceOnUse"
       id="clipPath26">
      <path
         d="M 10,0 H 1900 V 770 H 10 Z"
         id="path26" />
    </clipPath>
    <clipPath
       clipPathUnits="userSpaceOnUse"
       id="clipPath28">
      <path
         d="M 10,0 H 1900 V 770 H 10 Z"
         id="path28" />
    </clipPath>
    <clipPath
       clipPathUnits="userSpaceOnUse"
       id="clipPath30">
      <path
         d="M 10,0 H 1900 V 770 H 10 Z"
         id="path30" />
    </clipPath>
    <clipPath
       clipPathUnits="userSpaceOnUse"
       id="clipPath32">
      <path
         d="M 10,0 H 1900 V 770 H 10 Z"
         id="path32" />
    </clipPath>
    <clipPath
       clipPathUnits="userSpaceOnUse"
       id="clipPath34">
      <path
         d="M 10,0 H 1900 V 770 H 10 Z"
         id="path34" />
    </clipPath>
    <clipPath
       clipPathUnits="userSpaceOnUse"
       id="clipPath36">
      <path
         d="M 10,0 H 1900 V 770 H 10 Z"
         id="path36" />
    </clipPath>
    <clipPath
       clipPathUnits="userSpaceOnUse"
       id="clipPath38">
      <path
         d="M 10,0 H 1900 V 770 H 10 Z"
         id="path38" />
    </clipPath>
    <clipPath
       clipPathUnits="userSpaceOnUse"
       id="clipPath40">
      <path
         d="M 10,0 H 1900 V 770 H 10 Z"
         id="path40" />
    </clipPath>
    <clipPath
       clipPathUnits="userSpaceOnUse"
       id="clipPath42">
      <path
         d="M 10,0 H 1900 V 770 H 10 Z"
         id="path42" />
    </clipPath>
    <clipPath
       clipPathUnits="userSpaceOnUse"
       id="clipPath44">
      <path
         d="M 10,0 H 1900 V 770 H 10 Z"
         id="path44" />
    </clipPath>
    <clipPath
       clipPathUnits="userSpaceOnUse"
       id="clipPath46">
      <path
         d="M 10,0 H 1900 V 770 H 10 Z"
         id="path46" />
    </clipPath>
    <clipPath
       clipPathUnits="userSpaceOnUse"
       id="clipPath48">
      <path
         d="M 10,0 H 1900 V 770 H 10 Z"
         id="path48" />
    </clipPath>
    <clipPath
       clipPathUnits="userSpaceOnUse"
       id="clipPath50">
      <path
         d="M 10,0 H 1900 V 770 H 10 Z"
         id="path50" />
    </clipPath>
    <clipPath
       clipPathUnits="userSpaceOnUse"
       id="clipPath52">
      <path
         d="M 10,0 H 1900 V 770 H 10 Z"
         id="path52" />
    </clipPath>
    <clipPath
       clipPathUnits="userSpaceOnUse"
       id="clipPath54">
      <path
         d="M 10,0 H 1900 V 770 H 10 Z"
         id="path54" />
    </clipPath>
    <clipPath
       clipPathUnits="userSpaceOnUse"
       id="clipPath56">
      <path
         d="M 10,0 H 1900 V 770 H 10 Z"
         id="path56" />
    </clipPath>
  </defs>
  <sodipodi:namedview
     id="namedview1"
     pagecolor="#505050"
     bordercolor="#eeeeee"
     borderopacity="1"
     inkscape:showpageshadow="0"
     inkscape:pageopacity="0"
     inkscape:pagecheckerboard="0"
     inkscape:deskcolor="#505050">
    <inkscape:page
       x="0"
       y="0"
       inkscape:label="1"
       id="page1"
       width="254.66667"
       height="104"
       margin="0"
       bleed="0" />
  </sodipodi:namedview>
  <g
     id="g1"
     inkscape:groupmode="layer"
     inkscape:label="1">
    <path
       id="path1"
       d="m 145.16,303.238 c 0,65.742 53.281,119.063 119.059,119.063 65.742,0 119.062,-53.321 119.062,-119.063 m -238.121,0 c 0,-65.738 53.281,-119.058 119.059,-119.058 65.742,0 119.062,53.32 119.062,119.058"
       style="fill:none;stroke:#000000;stroke-width:7.97002;stroke-linecap:butt;stroke-linejoin:miter;stroke-miterlimit:10;stroke-dasharray:none;stroke-opacity:1"
       transform="matrix(0.13333333,0,0,-0.13333333,0,104)"
       clip-path="url(#clipPath2)" />
    <path
       id="path3"
       d="m 323.75,303.238 c -9.73,-15.226 -19.02,-29.758 -29.77,-29.758 -10.781,0 -20.07,14.532 -29.761,29.758 -9.731,15.242 -18.989,29.774 -29.77,29.774 -10.777,0 -20.07,-14.532 -29.758,-29.774"
       style="fill:none;stroke:#000000;stroke-width:7.97002;stroke-linecap:butt;stroke-linejoin:miter;stroke-miterlimit:10;stroke-dasharray:none;stroke-opacity:1"
       transform="matrix(0.13333333,0,0,-0.13333333,0,104)"
       clip-path="url(#clipPath4)" />
    <path
       id="path5"
       d="M 264.219,19.7695 V 184.18"
       style="fill:none;stroke:#000000;stroke-width:3.75;stroke-linecap:butt;stroke-linejoin:miter;stroke-miterlimit:4;stroke-dasharray:none;stroke-opacity:1"
       transform="matrix(0.13333333,0,0,-0.13333333,0,104)"
       clip-path="url(#clipPath6)" />
    <path
       id="path7"
       d="M 264.219,586.68 V 422.301"
       style="fill:none;stroke:#000000;stroke-width:3.75;stroke-linecap:butt;stroke-linejoin:miter;stroke-miterlimit:4;stroke-dasharray:none;stroke-opacity:1"
       transform="matrix(0.13333333,0,0,-0.13333333,0,104)"
       clip-path="url(#clipPath8)" />
    <path
       id="path9"
       d="m 89.4102,265.941 c 2.6601,0 5.0781,1.168 7.2695,3.508 2.2305,2.313 3.3203,5.039 3.3593,8.129 0,2.852 -1.1288,4.801 -3.4804,5.863 -4.7578,1.207 -7.8086,2.028 -9.1797,2.5 -1.3281,0.43 -2.2578,0.899 -2.8086,1.329 -2.6914,1.91 -4.0195,4.609 -4.0195,8.16 0,2.73 0.6992,5.23 2.1484,7.461 1.4414,2.23 2.8906,3.91 4.3711,5.039 1.2891,1.129 2.8516,2.031 4.6914,2.691 1.8672,0.668 3.2774,1.059 4.3281,1.098 h 1.211 c 4.3012,0 7.4292,-1.449 9.3402,-4.34 0.039,0 0.347,0.32 0.898,0.902 0.512,0.59 1.09,1.207 1.723,1.949 0.617,0.711 1.09,1.219 1.359,1.489 0.039,0 0.117,0 0.277,0 0.122,0 0.231,0 0.313,0.043 0.59,0 0.898,-0.16 0.898,-0.473 0,-0.309 -0.629,-3.008 -1.879,-8.129 -1.281,-5.109 -1.992,-7.769 -2.179,-7.93 -0.16,-0.191 -0.512,-0.269 -1.063,-0.23 -0.898,0 -1.367,0.23 -1.367,0.621 0,0.277 0.039,0.508 0.078,0.668 0,0.16 0.039,0.59 0.082,1.289 0.039,0.703 0.078,1.293 0.117,1.762 0,1.519 -0.199,2.851 -0.589,3.941 -0.43,1.129 -0.821,1.949 -1.207,2.5 -0.43,0.547 -0.981,1.098 -1.68,1.68 -1.641,0.937 -3.4728,1.41 -5.5431,1.41 -2.5391,0 -4.9297,-1.019 -7.1094,-3.09 -2.2304,-2.07 -3.3203,-4.453 -3.3593,-7.152 0,-1.328 0.3086,-2.5 0.9687,-3.469 0.7109,-0.98 1.6016,-1.68 2.7813,-2.109 0.1914,-0.082 1.75,-0.512 4.7187,-1.25 2.9727,-0.781 4.4609,-1.18 4.5,-1.211 1.5191,-0.512 3.0001,-1.57 4.4491,-3.25 1.442,-1.641 2.152,-3.899 2.152,-6.719 0,-1.172 -0.199,-2.422 -0.55,-3.781 -0.231,-0.981 -0.629,-2.07 -1.211,-3.289 -0.59,-1.211 -1.367,-2.531 -2.418,-3.981 -1.02,-1.449 -2.5002,-2.769 -4.4612,-4.019 -1.9101,-1.25 -4.0195,-2.11 -6.3203,-2.582 -0.5078,-0.078 -1.289,-0.117 -2.2695,-0.117 -4.4492,0 -7.8906,1.25 -10.3516,3.707 l -0.6992,0.742 -1.8789,-2.102 c -1.0195,-1.219 -1.6406,-1.918 -1.8711,-2.078 -0.2383,-0.191 -0.5078,-0.269 -0.8984,-0.269 -0.5508,0 -0.8594,0.199 -0.8594,0.546 0,0.122 1.2891,5.391 3.8984,15.821 0.0821,0.23 0.5508,0.39 1.3321,0.39 h 0.8984 c 0.2695,-0.269 0.3906,-0.507 0.3906,-0.738 0,-0.082 0,-0.32 -0.082,-0.633 -0.0391,-0.308 -0.1094,-0.777 -0.2305,-1.398 -0.1601,-0.629 -0.1992,-1.371 -0.1601,-2.231 0.082,-1.718 0.5117,-3.199 1.2109,-4.41 0.75,-1.219 1.6797,-2.109 2.8906,-2.699 1.211,-0.59 2.3907,-0.98 3.5196,-1.211 1.1289,-0.238 2.3008,-0.348 3.5508,-0.348 z"
       style="fill:#000000;fill-opacity:1;fill-rule:nonzero;stroke:none"
       transform="matrix(0.13333333,0,0,-0.13333333,0,104)"
       clip-path="url(#clipPath10)" />
    <path
       id="path11"
       d="m 15,340.27 c 0,1.41 0.4297,2.539 1.25,3.359 h 1.0195 c 2.6914,-0.188 6.0118,-0.309 10,-0.309 7.5,0 11.9102,0.121 13.2422,0.309 h 0.9375 c 0.3906,-0.391 0.5821,-0.66 0.5821,-0.859 0,-0.192 -0.0821,-0.782 -0.1915,-1.719 -0.3203,-0.93 -0.5898,-1.563 -0.8593,-1.789 h -2 c -1.4024,-0.16 -2.3399,-0.203 -2.8516,-0.203 -1.8281,-0.309 -2.8476,-0.821 -3.0391,-1.438 0,-0.121 0.9297,-8.09 2.7696,-23.871 1.8398,-15.82 2.7695,-23.789 2.8515,-23.91 l 6.9493,11.14 c 4.6093,7.418 9.2617,14.918 13.9101,22.461 4.6094,7.539 6.9883,11.438 7.1094,11.719 0.2695,0.43 0.3906,0.891 0.3906,1.399 0,1.531 -1.4101,2.421 -4.1797,2.703 -1.1289,0 -1.7187,0.347 -1.7187,1.008 0,0.082 0.0781,0.511 0.1992,1.25 0.1875,0.902 0.3906,1.449 0.5391,1.718 0.1992,0.242 0.6289,0.391 1.25,0.391 0.1211,0 0.5117,0 1.1406,0 0.6601,0 1.7187,-0.039 3.2383,-0.109 1.5195,-0.04 3.5507,-0.079 6.0898,-0.079 4.3828,0 7.1524,0.039 8.2813,0.188 h 0.6679 c 0.4727,-0.469 0.6602,-0.82 0.6602,-1.051 0,-1.098 -0.2695,-2.109 -0.8594,-3.047 -0.1484,-0.191 -0.6992,-0.269 -1.5976,-0.269 -0.8204,-0.082 -1.6016,-0.16 -2.3008,-0.203 -0.6719,-0.079 -1.3321,-0.231 -2,-0.469 -0.6211,-0.27 -1.1289,-0.5 -1.5196,-0.699 -0.3515,-0.161 -0.7421,-0.43 -1.1328,-0.743 -0.3867,-0.308 -0.707,-0.546 -0.9375,-0.668 -0.2695,-0.109 -0.5117,-0.429 -0.7812,-0.859 -0.2305,-0.422 -0.4688,-0.66 -0.6602,-0.66 L 53.0898,305.469 C 41.6406,286.988 35.7383,277.539 35.3906,277.07 c -0.1914,-0.121 -0.4297,-0.269 -0.6992,-0.468 l -1.6797,-0.082 h -0.6719 c -1.1679,0 -1.7187,0.199 -1.7187,0.671 -0.1914,0.387 -1.4414,10.508 -3.7109,30.469 -2.4219,20.149 -3.6719,30.352 -3.711,30.539 -0.3476,0.711 -2.3008,1.063 -5.9297,1.063 H 15.6602 C 15.2305,339.57 15,339.922 15,340.27 Z"
       style="fill:#000000;fill-opacity:1;fill-rule:nonzero;stroke:none"
       transform="matrix(0.13333333,0,0,-0.13333333,0,104)"
       clip-path="url(#clipPath12)" />
    <path
       id="path13"
       d="m 420.391,586.68 30.429,59.531 52.93,-119.02 52.891,119.02 52.929,-119.02 52.891,119.02 52.93,-119.02 30.429,59.489"
       style="fill:none;stroke:#000000;stroke-width:7.97002;stroke-linecap:butt;stroke-linejoin:bevel;stroke-miterlimit:10;stroke-dasharray:none;stroke-opacity:1"
       transform="matrix(0.13333333,0,0,-0.13333333,0,104)"
       clip-path="url(#clipPath14)" />
    <path
       id="path15"
       d="m 264.219,586.68 h 160.16"
       style="fill:none;stroke:#000000;stroke-width:3.75;stroke-linecap:butt;stroke-linejoin:miter;stroke-miterlimit:4;stroke-dasharray:none;stroke-opacity:1"
       transform="matrix(0.13333333,0,0,-0.13333333,0,104)"
       clip-path="url(#clipPath16)" />
    <path
       id="path17"
       d="M 901.988,586.68 H 741.84"
       style="fill:none;stroke:#000000;stroke-width:3.75;stroke-linecap:butt;stroke-linejoin:miter;stroke-miterlimit:4;stroke-dasharray:none;stroke-opacity:1"
       transform="matrix(0.13333333,0,0,-0.13333333,0,104)"
       clip-path="url(#clipPath18)" />
    <path
       id="path19"
       d="m 618.98,687.301 c 2.622,0 5.04,1.179 7.27,3.519 2.191,2.34 3.32,5.039 3.359,8.16 0,2.821 -1.168,4.77 -3.519,5.821 -4.762,1.219 -7.809,2.078 -9.141,2.5 -1.359,0.469 -2.301,0.898 -2.847,1.371 -2.653,1.879 -4.024,4.566 -4.024,8.129 0,2.73 0.703,5.23 2.152,7.461 1.442,2.258 2.891,3.937 4.372,5.078 1.328,1.09 2.886,1.988 4.726,2.648 1.832,0.711 3.281,1.063 4.293,1.102 h 1.219 c 4.289,0 7.422,-1.449 9.371,-4.301 0.039,0 0.309,0.27 0.859,0.859 0.551,0.582 1.129,1.25 1.758,1.954 0.621,0.699 1.051,1.207 1.332,1.488 0.039,0 0.149,0 0.27,0 0.16,0 0.23,0.031 0.351,0.07 0.59,0 0.86,-0.148 0.86,-0.461 0,-0.32 -0.621,-3.051 -1.871,-8.168 -1.25,-5.121 -2,-7.73 -2.149,-7.929 -0.199,-0.192 -0.551,-0.231 -1.101,-0.192 -0.899,0 -1.321,0.192 -1.321,0.578 0,0.282 0,0.512 0.031,0.672 0,0.149 0.04,0.578 0.079,1.289 0.043,0.742 0.082,1.321 0.16,1.75 0,1.531 -0.239,2.852 -0.629,3.992 -0.391,1.09 -0.82,1.95 -1.211,2.457 -0.391,0.551 -0.969,1.133 -1.68,1.68 -1.597,0.973 -3.429,1.442 -5.5,1.442 -2.578,0 -4.969,-1.051 -7.148,-3.122 -2.192,-2.027 -3.321,-4.418 -3.36,-7.109 0,-1.367 0.348,-2.539 1.008,-3.519 0.672,-0.969 1.602,-1.68 2.742,-2.071 0.188,-0.109 1.758,-0.5 4.719,-1.289 2.969,-0.738 4.461,-1.172 4.539,-1.211 1.52,-0.5 2.961,-1.558 4.41,-3.238 1.442,-1.641 2.153,-3.91 2.153,-6.723 0,-1.168 -0.16,-2.418 -0.512,-3.75 -0.23,-1.008 -0.66,-2.109 -1.211,-3.316 -0.59,-1.211 -1.41,-2.543 -2.418,-3.942 -1.062,-1.449 -2.543,-2.82 -4.461,-4.07 -1.949,-1.25 -4.058,-2.109 -6.32,-2.531 -0.551,-0.117 -1.289,-0.16 -2.309,-0.16 -4.41,0 -7.89,1.25 -10.351,3.711 l -0.66,0.742 -1.879,-2.07 c -1.051,-1.211 -1.68,-1.911 -1.911,-2.114 -0.199,-0.148 -0.511,-0.269 -0.859,-0.269 -0.59,0 -0.902,0.191 -0.902,0.551 0,0.109 1.332,5.39 3.902,15.82 0.117,0.269 0.551,0.39 1.367,0.39 h 0.864 c 0.269,-0.281 0.429,-0.511 0.429,-0.75 0,-0.07 -0.043,-0.269 -0.082,-0.582 -0.039,-0.308 -0.148,-0.777 -0.269,-1.41 -0.121,-0.66 -0.2,-1.359 -0.121,-2.218 0.082,-1.758 0.472,-3.25 1.211,-4.461 0.71,-1.207 1.679,-2.11 2.89,-2.688 1.211,-0.59 2.391,-0.98 3.481,-1.211 1.129,-0.238 2.308,-0.359 3.589,-0.359 z"
       style="fill:#000000;fill-opacity:1;fill-rule:nonzero;stroke:none"
       transform="matrix(0.13333333,0,0,-0.13333333,0,104)"
       clip-path="url(#clipPath20)" />
    <path
       id="path21"
       d="m 535.621,700.738 c 0,0.981 0.16,1.801 0.551,2.582 0,0.078 8.398,9.532 25.238,28.481 16.789,18.898 25.27,28.429 25.391,28.629 l -0.942,0.191 c -0.699,0 -3.05,0 -7.031,0 h -3.437 c -2.153,0 -3.942,-0.07 -5.313,-0.191 -1.406,-0.121 -3.168,-0.469 -5.238,-1.051 -2.11,-0.551 -3.82,-1.41 -5.149,-2.469 -1.332,-1.09 -2.781,-2.648 -4.3,-4.762 -1.52,-2.109 -2.692,-4.609 -3.59,-7.5 -0.082,-0.199 -0.121,-0.386 -0.199,-0.589 -0.082,-0.188 -0.122,-0.348 -0.192,-0.469 -0.082,-0.149 -0.082,-0.309 -0.082,-0.469 0,-0.191 -0.039,-0.312 -0.117,-0.312 l -0.082,-0.188 c -0.188,-0.32 -0.82,-0.473 -1.828,-0.473 -1.063,0 -1.68,0.313 -1.879,0.973 l 3.047,10.277 c 0.859,2.852 1.722,5.704 2.543,8.551 0.508,1.801 0.898,2.742 1.168,2.852 0.199,0.121 7.621,0.199 22.269,0.199 h 21.992 c 0.309,-0.309 0.469,-0.59 0.469,-0.738 0,-0.16 -0.199,-0.981 -0.59,-2.5 -33.48,-37.742 -50.269,-56.684 -50.351,-56.84 l -0.27,-0.274 h 8.473 c 6.019,0.082 9.297,0.122 9.808,0.192 4.758,0.59 8.668,2.109 11.719,4.648 3.039,2.543 5.539,7.231 7.5,14.032 0.5,1.558 0.852,2.531 1.051,2.851 0.199,0.309 0.59,0.469 1.25,0.469 h 0.352 c 1.328,0 1.988,-0.36 1.988,-1.059 -5.11,-16.871 -7.891,-25.429 -8.281,-25.582 C 581.41,700.039 573.75,700 558.629,700 h -16.75 c -4.18,0 -6.258,0.23 -6.258,0.738 z"
       style="fill:#000000;fill-opacity:1;fill-rule:nonzero;stroke:none"
       transform="matrix(0.13333333,0,0,-0.13333333,0,104)"
       clip-path="url(#clipPath22)" />
    <path
       id="path23"
       d="M 901.988,586.68 H 1398.05"
       style="fill:none;stroke:#000000;stroke-width:20;stroke-linecap:butt;stroke-linejoin:miter;stroke-miterlimit:4;stroke-dasharray:none;stroke-opacity:1"
       transform="matrix(0.13333333,0,0,-0.13333333,0,104)"
       clip-path="url(#clipPath24)" />
    <path
       id="path25"
       d="M 831.129,19.7695 H 1398.05"
       style="fill:none;stroke:#000000;stroke-width:20;stroke-linecap:butt;stroke-linejoin:miter;stroke-miterlimit:4;stroke-dasharray:none;stroke-opacity:1"
       transform="matrix(0.13333333,0,0,-0.13333333,0,104)"
       clip-path="url(#clipPath26)" />
    <path
       id="path27"
       d="M 831.129,19.7695 H 264.219"
       style="fill:none;stroke:#000000;stroke-width:4;stroke-linecap:butt;stroke-linejoin:miter;stroke-miterlimit:4;stroke-dasharray:none;stroke-opacity:1"
       transform="matrix(0.13333333,0,0,-0.13333333,0,104)"
       clip-path="url(#clipPath28)" />
    <path
       id="path29"
       d="m 1681.52,465.98 59.53,-30.468 -119.06,-52.891 119.06,-52.93 -119.06,-52.89 119.06,-52.93 -119.06,-52.93 59.53,-30.429"
       style="fill:none;stroke:#000000;stroke-width:7.97002;stroke-linecap:butt;stroke-linejoin:bevel;stroke-miterlimit:10;stroke-dasharray:none;stroke-opacity:1"
       transform="matrix(0.13333333,0,0,-0.13333333,0,104)"
       clip-path="url(#clipPath30)" />
    <path
       id="path31"
       d="M 1681.52,586.68 V 461.988"
       style="fill:none;stroke:#000000;stroke-width:3.75;stroke-linecap:butt;stroke-linejoin:miter;stroke-miterlimit:4;stroke-dasharray:none;stroke-opacity:1"
       transform="matrix(0.13333333,0,0,-0.13333333,0,104)"
       clip-path="url(#clipPath32)" />
    <path
       id="path33"
       d="M 1681.52,19.7695 V 144.488"
       style="fill:none;stroke:#000000;stroke-width:3.75;stroke-linecap:butt;stroke-linejoin:miter;stroke-miterlimit:4;stroke-dasharray:none;stroke-opacity:1"
       transform="matrix(0.13333333,0,0,-0.13333333,0,104)"
       clip-path="url(#clipPath34)" />
    <path
       id="path35"
       d="m 1862.54,306.48 c -1.52,0 -2.34,0.122 -2.42,0.282 -0.04,0.117 -0.08,0.269 -0.08,0.539 0,1.097 0.27,1.84 0.74,2.23 0.12,0.039 0.43,0.078 1.02,0.078 2.42,-0.16 5.27,-0.199 8.55,-0.199 6.33,0 9.96,0.039 10.9,0.199 h 0.82 c 0.23,-0.269 0.39,-0.468 0.39,-0.629 0,-0.109 -0.04,-0.539 -0.16,-1.21 -0.19,-0.661 -0.39,-1.09 -0.58,-1.29 h -2.54 c -3.13,-0.031 -4.92,-0.23 -5.47,-0.582 -0.31,-0.199 -0.62,-0.82 -0.94,-1.878 -0.31,-1.09 -1.83,-6.989 -4.53,-17.77 -0.7,-2.93 -1.44,-6.02 -2.26,-9.301 -0.82,-3.277 -1.41,-5.738 -1.84,-7.418 l -0.59,-2.422 c 0,-0.16 0.2,-0.23 0.59,-0.23 0.43,0 1.76,-0.078 3.98,-0.16 h 1.14 c 1.44,0 2.58,0.043 3.44,0.082 0.85,0.039 1.95,0.187 3.32,0.469 1.32,0.269 2.46,0.66 3.36,1.21 0.89,0.54 1.87,1.29 2.92,2.301 1.1,0.981 2.04,2.188 2.86,3.668 0.7,1.371 1.36,2.852 2.03,4.531 0.62,1.641 0.97,2.579 1.13,2.821 0.23,0.148 0.59,0.187 1.13,0.187 h 0.86 c 0.28,-0.386 0.43,-0.617 0.43,-0.738 0,-0.078 -0.47,-1.41 -1.36,-3.949 -0.9,-2.571 -1.88,-5.27 -2.93,-8.082 -1.1,-2.809 -1.68,-4.489 -1.76,-5 -0.12,-0.199 -0.2,-0.348 -0.28,-0.391 -0.07,-0.039 -0.46,-0.117 -1.09,-0.199 -0.62,-0.078 -1.56,-0.109 -2.89,-0.078 -0.47,0 -2.19,0 -5.12,0 -2.89,0 -5.66,0.039 -8.32,0.078 H 1855 c -3.75,0 -5.66,0.242 -5.66,0.672 0,0.308 0.07,0.621 0.15,0.929 0.24,0.86 0.43,1.329 0.67,1.411 0.19,0.078 0.5,0.078 1.01,0.078 h 0.39 c 1.21,0 2.58,0.082 4.06,0.191 0.63,0.16 1.06,0.43 1.26,0.82 0.15,0.2 1.75,6.411 4.84,18.719 3.12,12.301 4.65,18.781 4.65,19.449 0,0.313 -1.25,0.512 -3.83,0.582 z"
       style="fill:#000000;fill-opacity:1;fill-rule:nonzero;stroke:none"
       transform="matrix(0.13333333,0,0,-0.13333333,0,104)"
       clip-path="url(#clipPath36)" />
    <path
       id="path37"
       d="m 1784.57,278.672 c 0,0.937 0.2,1.797 0.59,2.578 0,0.039 8.39,9.531 25.19,28.441 16.84,18.938 25.31,28.469 25.43,28.668 l -0.94,0.192 c -0.7,0 -3.04,0 -7.07,0 h -3.39 c -2.19,0 -3.95,-0.071 -5.36,-0.192 -1.4,-0.121 -3.12,-0.468 -5.23,-1.058 -2.07,-0.539 -3.79,-1.36 -5.12,-2.461 -1.37,-1.09 -2.77,-2.649 -4.29,-4.762 -1.53,-2.109 -2.74,-4.609 -3.64,-7.539 -0.04,-0.16 -0.12,-0.348 -0.15,-0.551 -0.08,-0.187 -0.16,-0.347 -0.2,-0.468 -0.08,-0.149 -0.12,-0.309 -0.12,-0.5 0,-0.161 -0.04,-0.282 -0.07,-0.282 l -0.12,-0.187 c -0.2,-0.321 -0.78,-0.473 -1.8,-0.473 -1.09,0 -1.72,0.313 -1.91,0.942 l 3.04,10.308 c 0.9,2.852 1.76,5.703 2.58,8.551 0.51,1.801 0.9,2.742 1.13,2.851 0.2,0.122 7.62,0.2 22.27,0.2 h 21.99 c 0.32,-0.309 0.47,-0.59 0.47,-0.739 0,-0.16 -0.15,-0.98 -0.55,-2.5 -33.51,-37.781 -50.27,-56.722 -50.35,-56.839 l -0.27,-0.274 h 8.44 c 6.05,0.043 9.29,0.121 9.8,0.192 4.77,0.55 8.67,2.109 11.72,4.652 3.05,2.539 5.55,7.226 7.54,13.988 0.51,1.602 0.82,2.539 1.02,2.891 0.19,0.308 0.62,0.469 1.25,0.469 h 0.39 c 1.32,0 1.99,-0.36 1.99,-1.059 -5.16,-16.871 -7.89,-25.43 -8.28,-25.621 -0.2,-0.121 -7.85,-0.199 -22.93,-0.199 h -16.76 c -4.18,0 -6.29,0.269 -6.29,0.781 z"
       style="fill:#000000;fill-opacity:1;fill-rule:nonzero;stroke:none"
       transform="matrix(0.13333333,0,0,-0.13333333,0,104)"
       clip-path="url(#clipPath38)" />
    <path
       id="path39"
       d="m 1398.05,586.68 h 283.47"
       style="fill:none;stroke:#000000;stroke-width:4;stroke-linecap:butt;stroke-linejoin:miter;stroke-miterlimit:4;stroke-dasharray:none;stroke-opacity:1"
       transform="matrix(0.13333333,0,0,-0.13333333,0,104)"
       clip-path="url(#clipPath40)" />
    <path
       id="path41"
       d="m 1398.05,19.7695 h 283.47"
       style="fill:none;stroke:#000000;stroke-width:4;stroke-linecap:butt;stroke-linejoin:miter;stroke-miterlimit:4;stroke-dasharray:none;stroke-opacity:1"
       transform="matrix(0.13333333,0,0,-0.13333333,0,104)"
       clip-path="url(#clipPath42)" />
    <path
       id="path43"
       d="m 1005.12,91.0898 c 2.54,3.6407 5.93,5.4688 10.31,5.4688 2.15,0 4.3,-0.5781 6.45,-1.7578 2.14,-1.1719 3.9,-3.2422 5.27,-6.211 1.64,-3.7109 2.46,-8.8203 2.46,-15.3085 0,-6.9532 -0.94,-12.3008 -2.89,-15.9805 -0.9,-1.8711 -2.11,-3.3516 -3.71,-4.4922 -1.56,-1.1289 -2.93,-1.8281 -4.1,-2.1094 -1.14,-0.2304 -2.31,-0.3906 -3.4,-0.4687 -1.17,0 -2.35,0.1601 -3.52,0.4297 -1.17,0.2812 -2.54,0.9804 -4.1,2.1484 -1.56,1.1719 -2.81,2.6602 -3.71,4.4922 -1.91,3.6797 -2.89,9.0273 -2.89,15.9805 0,7.7695 1.29,13.75 3.83,17.8085 z m 15.15,0.8204 c -1.36,1.4492 -2.93,2.1484 -4.76,2.1484 -1.92,0 -3.52,-0.6992 -4.85,-2.1484 -1.13,-1.1719 -1.87,-2.7696 -2.22,-4.8399 -0.39,-2.0703 -0.55,-6.3711 -0.55,-12.9297 0,-7.0703 0.16,-11.7617 0.55,-13.9804 0.35,-2.2696 1.17,-4.0313 2.42,-5.3204 1.25,-1.3593 2.77,-2.0312 4.65,-2.0312 1.76,0 3.32,0.6719 4.57,2.0312 1.29,1.3321 2.11,3.211 2.42,5.629 0.31,2.4218 0.47,6.9921 0.51,13.6718 0,6.5196 -0.16,10.7813 -0.51,12.8477 -0.35,2.0703 -1.09,3.7109 -2.23,4.9219 z"
       style="fill:#000000;fill-opacity:1;fill-rule:nonzero;stroke:none"
       transform="matrix(0.13333333,0,0,-0.13333333,0,104)"
       clip-path="url(#clipPath44)" />
    <path
       id="path45"
       d="m 936.051,66.7617 c 0,0.9688 0.16,1.8281 0.551,2.5781 0,0.0704 8.398,9.5704 25.238,28.4688 16.789,18.9104 25.269,28.4414 25.39,28.6404 l -0.941,0.192 c -0.699,0 -3.051,0 -7.027,0 h -3.442 c -2.148,0 -3.941,-0.082 -5.308,-0.192 -1.41,-0.121 -3.172,-0.469 -5.242,-1.058 -2.11,-0.551 -3.821,-1.371 -5.149,-2.461 -1.332,-1.09 -2.781,-2.66 -4.301,-4.77 -1.519,-2.07 -2.699,-4.609 -3.59,-7.5 -0.082,-0.191 -0.121,-0.39 -0.199,-0.582 -0.082,-0.199 -0.121,-0.348 -0.191,-0.469 -0.078,-0.121 -0.078,-0.269 -0.078,-0.468 0,-0.192 -0.043,-0.313 -0.121,-0.313 l -0.082,-0.156 c -0.188,-0.352 -0.821,-0.512 -1.829,-0.512 -1.058,0 -1.679,0.32 -1.878,0.981 l 3.046,10.269 c 0.864,2.86 1.723,5.711 2.543,8.559 0.508,1.801 0.899,2.73 1.168,2.851 0.192,0.16 7.621,0.2 22.27,0.2 h 21.992 c 0.309,-0.321 0.469,-0.551 0.469,-0.75 0,-0.149 -0.199,-0.969 -0.59,-2.5 C 965.27,90.0391 948.48,71.0898 948.398,70.9805 l -0.277,-0.3203 h 8.481 c 6.019,0.0781 9.296,0.1211 9.808,0.1992 4.762,0.5898 8.668,2.1523 11.711,4.6914 3.051,2.5 5.551,7.1797 7.5,13.9805 0.508,1.5585 0.859,2.539 1.059,2.8476 0.199,0.3203 0.59,0.4727 1.25,0.4727 h 0.351 c 1.328,0 1.989,-0.3516 1.989,-1.0508 -5.11,-16.8789 -7.891,-25.3906 -8.282,-25.5899 -0.148,-0.1601 -7.808,-0.1914 -22.929,-0.1914 h -16.758 c -4.18,0 -6.25,0.2305 -6.25,0.7422 z"
       style="fill:#000000;fill-opacity:1;fill-rule:nonzero;stroke:none"
       transform="matrix(0.13333333,0,0,-0.13333333,0,104)"
       clip-path="url(#clipPath46)" />
    <path
       id="path47"
       d="m 1063.55,86.3711 c 0,6.0508 2.04,11.25 6.18,15.6169 4.14,4.383 9.1,6.602 14.96,6.684 5.7,0 10.62,-2.192 14.72,-6.481 4.14,-4.3394 6.21,-9.5699 6.29,-15.7105 0,-6.0508 -2.03,-11.1289 -6.09,-15.2305 -4.06,-4.1406 -9.02,-6.2109 -14.92,-6.2109 -6.17,0 -11.21,2.1523 -15.16,6.4101 -3.94,4.25 -5.94,9.211 -5.98,14.9219 z m 21.14,-17.5 c 7.73,0 11.6,5.1484 11.6,15.5078 v 5.4219 c 0,1.4101 -0.04,2.6211 -0.12,3.6406 -0.04,1.0078 -0.27,2.1797 -0.66,3.5899 -0.35,1.4101 -0.86,2.539 -1.53,3.4377 -0.62,0.902 -1.6,1.761 -2.93,2.652 -1.32,0.899 -2.89,1.527 -4.68,1.918 -0.32,0.082 -0.82,0.082 -1.53,0.082 -1.87,0 -3.71,-0.351 -5.39,-1.141 -2.73,-1.402 -4.53,-3.32 -5.35,-5.8198 -0.82,-2.461 -1.25,-5.3907 -1.25,-8.75 v -1.8711 c 0,-6.0899 0.63,-10.3907 1.84,-12.8477 2.03,-3.9101 5.35,-5.8203 10,-5.8203 z"
       style="fill:#000000;fill-opacity:1;fill-rule:nonzero;stroke:none"
       transform="matrix(0.13333333,0,0,-0.13333333,0,104)"
       clip-path="url(#clipPath48)" />
    <path
       id="path49"
       d="m 1111.88,70.3906 h 1.36 c 2.46,0 3.95,0.4297 4.46,1.3282 V 72.5 c 0,0.5508 0,1.2891 0,2.1914 0,0.8594 0.03,1.8281 0.11,2.9297 0.04,1.0898 0.04,2.3008 0,3.707 -0.08,1.4024 -0.08,2.7305 0,3.9805 0,1.9922 0,4.0703 0,6.293 0,2.2265 0,4.0976 0,5.6289 l -0.11,2.1797 c -0.2,1.2108 -0.63,1.9998 -1.33,2.3908 -0.71,0.39 -2.11,0.66 -4.3,0.859 h -1.72 v 2.18 c 0,1.449 0.08,2.191 0.2,2.191 l 0.97,0.117 c 0.63,0.043 1.53,0.122 2.66,0.153 1.13,0.078 2.27,0.16 3.44,0.199 1.01,0.078 2.11,0.16 3.32,0.199 1.21,0.071 2.11,0.153 2.77,0.27 0.63,0.152 0.98,0.191 1.02,0.121 h 0.31 v -6.57 c 2.46,4.3 5.55,6.449 9.22,6.449 h 0.58 c 2.86,0 4.93,-0.668 6.25,-2.071 1.37,-1.41 2.03,-2.847 2.03,-4.378 0,-1.321 -0.42,-2.5005 -1.24,-3.4302 -0.83,-0.9414 -2.04,-1.4492 -3.64,-1.4492 -1.56,0 -2.73,0.5078 -3.51,1.5196 -0.75,1.0195 -1.18,2.1098 -1.21,3.2498 0,0.578 0.03,1.09 0.15,1.52 0.16,0.468 0.31,0.82 0.51,1.172 0.16,0.308 0.27,0.468 0.27,0.468 -0.11,0.121 -0.86,0 -2.18,-0.39 -1.02,-0.508 -1.8,-0.981 -2.31,-1.45 -2.97,-2.8511 -4.45,-8.5112 -4.45,-17.0308 v -5.039 c 0,-0.8204 0,-1.6797 0,-2.5704 0,-0.8593 0,-1.7187 0,-2.4687 0,-0.7813 0.04,-1.4023 0.08,-1.9102 0.07,-0.5117 0.07,-0.9804 0,-1.4101 v -0.5 c 0.07,-0.1211 0.15,-0.2422 0.31,-0.3516 0.12,-0.1601 0.27,-0.2383 0.47,-0.3203 0.19,-0.0391 0.35,-0.1484 0.47,-0.2695 0.11,-0.1211 0.35,-0.1992 0.66,-0.1992 0.31,0 0.55,-0.0391 0.66,-0.0704 0.12,-0.0781 0.43,-0.121 0.86,-0.121 0.43,0 0.75,0 0.86,0 0.12,0 0.43,0 0.94,-0.0782 0.51,-0.082 0.82,-0.082 0.98,0 h 2.93 v -4.3711 h -0.86 c -1.14,0.1914 -5.16,0.2696 -12.07,0.2696 -6.53,0 -10.08,-0.0782 -10.67,-0.2696 h -0.78 v 4.3711 z"
       style="fill:#000000;fill-opacity:1;fill-rule:nonzero;stroke:none"
       transform="matrix(0.13333333,0,0,-0.13333333,0,104)"
       clip-path="url(#clipPath50)" />
    <path
       id="path51"
       d="m 1276.09,97.6992 c 0.04,0 1.64,0.1094 4.85,0.3516 3.16,0.1875 4.8,0.3476 4.88,0.3906 0.55,0 0.82,-0.2031 0.82,-0.6328 0,-0.4688 -0.82,-3.8594 -2.42,-10.1484 -1.72,-6.6407 -2.54,-10 -2.54,-10.1602 0,-0.0781 0.16,0.0391 0.47,0.3516 2.73,2.4179 5.62,3.6289 8.75,3.6289 2.42,0 4.33,-0.6211 5.82,-1.8321 1.48,-1.207 2.26,-2.9687 2.3,-5.3086 0,-2.2695 -0.86,-5.8203 -2.54,-10.6289 -1.71,-4.8007 -2.57,-7.6601 -2.57,-8.6328 0.04,-0.6289 0.15,-1.0586 0.35,-1.25 0.15,-0.2383 0.51,-0.3476 0.97,-0.3476 1.29,0 2.47,0.6601 3.52,2.0312 1.09,1.3281 1.95,3.1602 2.62,5.5078 0.15,0.5 0.27,0.7813 0.43,0.8594 0.11,0.1094 0.47,0.1524 1.05,0.1524 0.9,0 1.37,-0.1915 1.37,-0.5508 0,-0.0313 -0.12,-0.3907 -0.27,-1.0117 -0.75,-2.6172 -1.88,-4.8086 -3.44,-6.5196 -1.53,-1.9179 -3.36,-2.8984 -5.47,-2.8984 h -0.31 c -2.11,0 -3.64,0.6289 -4.57,1.8398 -0.98,1.211 -1.45,2.461 -1.45,3.8282 0,0.7031 0.82,3.3593 2.42,7.9296 1.64,4.5704 2.46,8.0118 2.5,10.3125 0,2.6172 -0.97,3.9493 -2.97,3.9493 h -0.31 c -3.75,0 -6.95,-2.1914 -9.69,-6.6094 l -0.46,-0.8516 -2.31,-9.0703 c -1.44,-5.8594 -2.27,-9.0195 -2.5,-9.5703 -0.59,-1.207 -1.56,-1.8281 -2.93,-1.8281 -0.66,0 -1.17,0.2304 -1.64,0.6211 -0.43,0.3867 -0.7,0.8203 -0.74,1.207 0,0.6328 1.64,7.4609 4.92,20.4727 l 4.96,19.9179 c 0,0.5508 -0.16,0.9414 -0.47,1.0625 -0.31,0.1485 -1.17,0.2266 -2.61,0.3477 h -1.41 c -0.27,0.2695 -0.39,0.4297 -0.39,0.5508 0,0.0703 0.04,0.5 0.12,1.25 0.23,0.8593 0.5,1.289 0.89,1.289 z"
       style="fill:#000000;fill-opacity:1;fill-rule:nonzero;stroke:none"
       transform="matrix(0.13333333,0,0,-0.13333333,0,104)"
       clip-path="url(#clipPath52)" />
    <path
       id="path53"
       d="m 1240,62.4219 c 0,4.8789 1.95,9.2969 5.78,13.1992 3.87,3.9102 8.05,5.8594 12.54,5.8594 2.5,0 4.49,-0.5391 5.9,-1.6407 1.44,-1.0507 2.19,-2.4609 2.23,-4.2187 0,-1.2813 -0.43,-2.4219 -1.29,-3.3203 -0.82,-0.8516 -1.92,-1.3594 -3.21,-1.4024 -0.86,0 -1.52,0.2305 -2.03,0.7032 -0.51,0.4297 -0.74,1.0976 -0.74,1.9882 0,0.8985 0.23,1.6797 0.74,2.3086 0.51,0.6211 0.98,1.0899 1.49,1.4024 0.5,0.3203 0.82,0.4297 0.93,0.3984 h 0.08 c 0,0.1094 -0.15,0.2305 -0.43,0.4219 -0.23,0.1602 -0.7,0.3594 -1.4,0.5078 -0.67,0.1992 -1.41,0.2813 -2.27,0.2813 -1.37,0 -2.62,-0.3204 -3.83,-0.9414 -0.97,-0.3907 -1.91,-1.0899 -2.93,-2.0704 -1.95,-1.9882 -3.4,-4.7695 -4.29,-8.3593 -0.9,-3.5899 -1.37,-6.168 -1.41,-7.8086 0,-2.0703 0.59,-3.6016 1.76,-4.6524 0.97,-1.0586 2.26,-1.5976 3.9,-1.5976 h 0.28 c 5,0 9.18,1.9101 12.42,5.7383 0.43,0.4296 0.7,0.6601 0.82,0.6601 0.19,0 0.47,-0.1875 0.86,-0.6172 0.43,-0.3906 0.62,-0.7109 0.7,-0.9414 0.04,-0.2305 -0.15,-0.5508 -0.62,-1.0195 -0.43,-0.4219 -1.1,-1.0508 -1.96,-1.8711 -0.86,-0.8203 -1.83,-1.4805 -3,-2.0313 -1.18,-0.5078 -2.62,-1.0976 -4.34,-1.6796 -1.68,-0.5899 -3.48,-0.8204 -5.35,-0.7383 -3.4,0 -6.1,1.0898 -8.17,3.2383 -2.07,2.1523 -3.12,4.8828 -3.16,8.2031 z"
       style="fill:#000000;fill-opacity:1;fill-rule:nonzero;stroke:none"
       transform="matrix(0.13333333,0,0,-0.13333333,0,104)"
       clip-path="url(#clipPath54)" />
    <path
       id="path55"
       d="m 1175.08,66.7617 c 0,0.9688 0.19,1.8281 0.58,2.5781 0,0.0704 8.4,9.5704 25.24,28.4688 16.8,18.9104 25.27,28.4414 25.39,28.6404 l -0.94,0.192 c -0.7,0 -3.05,0 -7.03,0 h -3.44 c -2.15,0 -3.94,-0.082 -5.35,-0.192 -1.37,-0.121 -3.12,-0.469 -5.23,-1.058 -2.07,-0.551 -3.79,-1.371 -5.12,-2.461 -1.33,-1.09 -2.77,-2.66 -4.3,-4.77 -1.52,-2.07 -2.73,-4.609 -3.59,-7.5 -0.08,-0.191 -0.16,-0.39 -0.2,-0.582 -0.07,-0.199 -0.15,-0.348 -0.19,-0.469 -0.08,-0.121 -0.12,-0.269 -0.12,-0.468 0,-0.192 0,-0.313 -0.08,-0.313 l -0.08,-0.156 c -0.19,-0.352 -0.82,-0.512 -1.83,-0.512 -1.06,0 -1.72,0.32 -1.91,0.981 l 3.04,10.269 c 0.9,2.86 1.76,5.711 2.58,8.559 0.51,1.801 0.9,2.73 1.13,2.851 0.2,0.16 7.62,0.2 22.31,0.2 h 21.95 c 0.35,-0.321 0.51,-0.551 0.51,-0.75 0,-0.149 -0.2,-0.969 -0.59,-2.5 -33.51,-37.7309 -50.27,-56.6802 -50.35,-56.7895 l -0.27,-0.3203 h 8.47 c 6.02,0.0781 9.3,0.1211 9.81,0.1992 4.73,0.5898 8.63,2.1523 11.68,4.6914 3.05,2.5 5.55,7.1797 7.54,13.9805 0.51,1.5585 0.86,2.539 1.05,2.8476 0.16,0.3203 0.59,0.4727 1.21,0.4727 h 0.39 c 1.33,0 2,-0.3516 2,-1.0508 -5.12,-16.8789 -7.89,-25.3906 -8.29,-25.5899 -0.19,-0.1601 -7.81,-0.1914 -22.93,-0.1914 h -16.75 c -4.18,0 -6.29,0.2305 -6.29,0.7422 z"
       style="fill:#000000;fill-opacity:1;fill-rule:nonzero;stroke:none"
       transform="matrix(0.13333333,0,0,-0.13333333,0,104)"
       clip-path="url(#clipPath56)" />
  </g>
</svg>
